<?xml version="1.0" encoding="UTF-8" standalone="no"?>
<!-- Created with Inkscape (http://www.inkscape.org/) -->

<svg
   width="512"
   height="512"
   viewBox="0 0 135.46666 135.46667"
   version="1.1"
   id="svg5"
   inkscape:version="1.2.1 (9c6d41e410, 2022-07-14)"
   sodipodi:docname="favicon.svg"
   inkscape:export-filename="favicon.png"
   inkscape:export-xdpi="96"
   inkscape:export-ydpi="96"
   xmlns:inkscape="http://www.inkscape.org/namespaces/inkscape"
   xmlns:sodipodi="http://sodipodi.sourceforge.net/DTD/sodipodi-0.dtd"
   xmlns:xlink="http://www.w3.org/1999/xlink"
   xmlns="http://www.w3.org/2000/svg"
   xmlns:svg="http://www.w3.org/2000/svg">
  <sodipodi:namedview
     id="namedview7"
     pagecolor="#ffffff"
     bordercolor="#666666"
     borderopacity="1.0"
     inkscape:showpageshadow="2"
     inkscape:pageopacity="0.0"
     inkscape:pagecheckerboard="0"
     inkscape:deskcolor="#d1d1d1"
     inkscape:document-units="px"
     showgrid="false"
     inkscape:zoom="1.1893044"
     inkscape:cx="258.5545"
     inkscape:cy="261.49739"
     inkscape:window-width="1920"
     inkscape:window-height="1017"
     inkscape:window-x="-8"
     inkscape:window-y="-8"
     inkscape:window-maximized="1"
     inkscape:current-layer="layer2" />
  <defs
     id="defs2" />
  <g
     inkscape:label="Layer 1"
     inkscape:groupmode="layer"
     id="layer1"
     style="display:none">
    <rect
       style="fill:#ffffff;fill-opacity:1;stroke:none;stroke-width:2.64599;stroke-linecap:square;stroke-linejoin:bevel"
       id="rect7264"
       width="135.46666"
       height="135.46666"
       x="0"
       y="0" />
    <g
       id="g7178"
       transform="translate(-2.8123905,2.9177864)">
      <use
         x="0"
         y="0"
         xlink:href="#path1701"
         id="use1937"
         transform="matrix(-1,0,0,1,141.09144,3.7865991e-7)" />
      <path
         style="fill:#00009f;fill-opacity:1;stroke:none;stroke-width:0.198438px;stroke-linecap:butt;stroke-linejoin:miter;stroke-opacity:1"
         d="m 64.195725,42.590545 -12.699999,-28.575 -14.816669,50.8 z"
         id="path1701"
         sodipodi:nodetypes="cccc" />
      <ellipse
         style="display:inline;fill:#00009f;fill-opacity:1;stroke-width:1.90001;stroke-linecap:square;stroke-linejoin:bevel"
         id="path792"
         cx="70.545723"
         cy="77.515549"
         ry="38.099998"
         rx="42.333332" />
    </g>
  </g>
  <g
     inkscape:groupmode="layer"
     id="layer2"
     inkscape:label="Layer 2">
    <rect
       style="fill:#00003f;fill-opacity:1;stroke:none;stroke-width:2.64599;stroke-linecap:square;stroke-linejoin:bevel"
       id="rect8400"
       width="135.46666"
       height="135.46666"
       x="0"
       y="0" />
    <path
       style="fill:#1f1fff;fill-opacity:1;stroke:none;stroke-width:0.264583px;stroke-linecap:butt;stroke-linejoin:miter;stroke-opacity:1"
       d="m 16.933333,50.800002 c 0,0 5.071528,-6.368355 8.466667,-8.466666 3.79588,-2.345983 8.237675,-4.233333 12.7,-4.233333 4.462325,0 8.904119,1.88735 12.699999,4.233333 3.395139,2.098311 8.466667,8.466666 8.466667,8.466666 0,0 -5.071528,6.368356 -8.466667,8.466667 -3.79588,2.345983 -8.237674,4.233333 -12.699999,4.233333 -4.462325,0 -8.90412,-1.88735 -12.7,-4.233333 -3.395139,-2.098311 -8.466667,-8.466667 -8.466667,-8.466667 z"
       id="path8893"
       sodipodi:nodetypes="caaacaaac" />
    <path
       style="fill:#6fafff;fill-opacity:1;fill-rule:nonzero;stroke:none;stroke-width:0.264583px;stroke-linecap:butt;stroke-linejoin:miter;stroke-opacity:1"
       d="m 76.199999,50.800002 c 0,0 5.071528,-6.368355 8.466667,-8.466666 3.79588,-2.345983 8.237675,-4.233333 12.7,-4.233333 4.462324,0 8.904114,1.88735 12.700004,4.233333 3.39513,2.098311 8.46666,8.466666 8.46666,8.466666 0,0 -5.07153,6.368356 -8.46666,8.466667 -3.79589,2.345983 -8.23768,4.233333 -12.700004,4.233333 -4.462325,0 -8.90412,-1.88735 -12.7,-4.233333 -3.395139,-2.098311 -8.466667,-8.466667 -8.466667,-8.466667 z"
       id="use9051"
       sodipodi:nodetypes="caaacaaac" />
    <ellipse
       style="fill:#00003f;fill-opacity:1;fill-rule:nonzero;stroke:none;stroke-width:3.17934;stroke-linecap:square;stroke-linejoin:bevel"
       id="path13191"
       cx="38.099998"
       cy="50.799999"
       rx="10.583333"
       ry="12.7" />
    <path
       style="fill:#000000;fill-opacity:1;stroke:none;stroke-width:0.264583px;stroke-linecap:butt;stroke-linejoin:miter;stroke-opacity:1"
       d="m 38.1,38.100003 c 0,0 -2.443172,4.099494 -3.175,6.35 -0.663596,2.040679 -1.058334,4.204136 -1.058334,6.349999 0,2.145863 0.394738,4.309321 1.058334,6.35 0.731828,2.250506 3.175,6.35 3.175,6.35 0,0 2.443172,-4.099495 3.174999,-6.35 0.663596,-2.040679 1.058334,-4.204137 1.058334,-6.35 0,-2.145863 -0.394738,-4.30932 -1.058334,-6.349999 -0.731827,-2.250505 -3.174999,-6.35 -3.174999,-6.35 z"
       id="path12037"
       sodipodi:nodetypes="caaacaaac" />
    <ellipse
       style="fill:#1b2b3f;fill-opacity:1;fill-rule:nonzero;stroke:none;stroke-width:3.17934;stroke-linecap:square;stroke-linejoin:bevel"
       id="path13191-6"
       cx="97.366661"
       cy="50.799999"
       rx="10.583333"
       ry="12.7" />
    <path
       style="fill:#000000;fill-opacity:1;stroke:none;stroke-width:0.264583px;stroke-linecap:butt;stroke-linejoin:miter;stroke-opacity:1"
       d="m 97.366665,38.100006 c 0,0 -2.443172,4.099494 -3.175,6.35 -0.663596,2.040679 -1.058334,4.204136 -1.058334,6.349999 0,2.145863 0.394738,4.309321 1.058334,6.35 0.731828,2.250506 3.175,6.35 3.175,6.35 0,0 2.443172,-4.099495 3.174995,-6.35 0.6636,-2.040679 1.05834,-4.204137 1.05834,-6.35 0,-2.145863 -0.39474,-4.30932 -1.05834,-6.349999 -0.731823,-2.250505 -3.174995,-6.35 -3.174995,-6.35 z"
       id="path12037-9"
       sodipodi:nodetypes="caaacaaac" />
    <path
       style="fill:none;stroke:#000000;stroke-width:2.64583;stroke-linecap:butt;stroke-linejoin:miter;stroke-dasharray:none;stroke-opacity:1"
       d="m 42.333333,80.433332 c 6.796077,19.478405 20.055247,20.105658 25.399999,0 6.194195,21.065608 21.078776,20.813178 25.4,0"
       id="path15552"
       sodipodi:nodetypes="ccc" />
  </g>
</svg>
